<?xml version="1.0" encoding="UTF-8"?>
<svg width="144px" height="144px" viewBox="0 0 144 144" xmlns="http://www.w3.org/2000/svg" xmlns:xlink="http://www.w3.org/1999/xlink" version="1.1">
 <!-- Generated by Pixelmator Pro 2.0.2 -->
 <defs>
  <path id="Rounded-Rectangle" d="M32 0 C14.327 0 0 14.327 0 32 L0 112 C0 129.673 14.327 144 32 144 L112 144 C129.673 144 144 129.673 144 112 L144 32 C144 14.327 129.673 0 112 0 Z"/>
 </defs>
 <use id="Rounded-Rectangle-1" xlink:href="#Rounded-Rectangle" fill="#ffffff" fill-opacity="1" stroke="none"/>
 <defs>
  <path id="stroke-path" d="M115.859 142.25 L121.75 140.891 128.453 137.672 134.063 133.047 138.453 127.172 141.328 120.391 142.484 112.719 142.484 31.25 141.703 25.141 140.375 20.797 137.688 15.563 135.047 12.031 130.875 8.047 125.875 4.844 121.734 3.109 117.422 1.984 111.875 1.5 32.031 1.5 25.125 2.297 19.422 4.203 14.375 7.109 9.906 10.984 6.25 15.656 3.594 20.828 1.984 26.563 1.5 32.125 1.5 112.719 2.672 120.406 4.188 124.563 6.297 128.438 8.938 131.984 13.109 135.969 18.109 139.172 22.25 140.906 26.563 142.031 32.125 142.5 Z"/>
 </defs>
 <use id="Rounded-Rectangle-2" stroke="#000000" stroke-opacity="1" stroke-linecap="round" fill="none" stroke-width="3" xlink:href="#stroke-path"/>
 <path id="Path" d="M80.382 73.303 C78.683 72.744 76.237 72.864 73.044 72.864 L60.216 72.864 60.216 89.608 73.934 89.608 C76.078 89.608 77.583 89.379 78.45 89.219 79.978 88.945 81.256 88.415 82.282 87.776 83.308 87.138 84.152 86.17 84.814 84.95 85.475 83.73 85.807 82.303 85.807 80.706 85.807 78.837 85.328 77.401 84.369 76.021 83.411 74.64 82.082 73.862 80.382 73.303 Z M78.621 65.647 C80.308 65.146 81.58 64.271 82.435 63.109 83.291 61.945 83.719 60.465 83.719 58.709 83.719 57.045 83.319 55.568 82.52 54.301 81.722 53.035 80.583 52.545 79.1 52.077 77.617 51.61 75.074 51.752 71.47 51.752 L60.216 51.752 60.216 66.312 72.291 66.312 C75.234 66.312 77.343 66.035 78.621 65.647 Z M117 39.103 C117 32.419 111.581 27 104.897 27 L38.103 27 C31.419 27 26 32.419 26 39.103 L26 105.897 C26 112.581 31.419 118 38.103 118 L104.897 118 C111.581 118 117 112.581 117 105.897 Z M91.195 87.238 C90.203 89.257 88.976 90.814 87.517 91.908 86.056 93.003 84.225 93.932 82.025 94.491 79.825 95.051 77.127 95.432 73.934 95.432 L53.664 95.432 53.664 45.2 73.626 45.2 C77.458 45.2 80.531 45.643 82.846 46.657 85.162 47.673 86.974 49.203 88.287 51.313 89.598 53.423 90.254 55.613 90.254 57.917 90.254 60.061 89.672 62.072 88.509 63.965 87.346 65.859 85.589 67.382 83.24 68.545 86.273 69.435 88.606 70.951 90.237 73.094 91.867 75.238 92.683 77.769 92.683 80.689 92.683 83.038 92.187 85.22 91.195 87.238 Z" fill="#5b4282" fill-opacity="1" stroke="none"/>
</svg>
