<?xml version="1.0" encoding="UTF-8"?>
<svg width="144px" height="144px" viewBox="0 0 144 144" xmlns="http://www.w3.org/2000/svg" xmlns:xlink="http://www.w3.org/1999/xlink" version="1.1">
 <!-- Generated by Pixelmator Pro 2.0.2 -->
 <path id="Rounded-Rectangle" d="M16 0 C7.164 0 0 7.164 0 16 L0 128 C0 136.836 7.164 144 16 144 L128 144 C136.836 144 144 136.836 144 128 L144 16 C144 7.164 136.836 0 128 0 Z" fill="#ffffff" fill-opacity="1" stroke="none"/>
 <g id="group">
  <path id="Path" d="M93.122 77.903 L93.122 73.687 97.339 73.687 97.339 70.313 93.122 70.313 93.122 66.097 88.906 66.097 88.906 70.313 84.689 70.313 84.689 73.687 88.906 73.687 88.906 77.903 Z M108.302 66.097 L104.929 66.097 104.929 70.313 99.869 70.313 99.869 73.687 104.929 73.687 104.929 77.903 108.302 77.903 108.302 73.687 112.518 73.687 112.518 70.313 108.302 70.313 Z M118 46.11 C117.494 45.182 116.819 44.339 116.06 43.918 L75.497 20.473 C74.822 20.052 73.894 19.883 72.882 19.883 71.871 19.883 70.943 20.136 70.268 20.473 L29.367 43.918 C27.934 44.761 26.5 46.869 26.5 48.471 L26.5 95.444 C26.5 96.372 27.09 97.384 27.681 98.312 L27.765 98.396 C28.187 99.071 28.861 99.661 29.452 99.998 L70.184 123.527 C70.859 123.948 71.871 124.117 72.882 124.117 73.894 124.117 74.822 123.864 75.497 123.527 L115.554 99.998 C116.988 99.155 117.578 97.047 117.578 95.444 L117.578 48.471 C117.578 47.797 117.916 46.953 117.578 46.279 Z M114.458 47.881 C114.458 48.134 114.205 48.303 114.205 48.471 L114.205 95.444 C114.205 96.119 114.036 96.878 113.868 97.131 L73.726 120.575 C73.641 120.659 73.304 120.744 72.798 120.744 72.292 120.744 71.955 120.659 71.871 120.575 L31.223 97.131 C31.223 97.131 31.138 97.047 31.054 97.047 L30.548 96.541 C30.211 95.95 30.717 95.613 29.873 95.529 L29.873 48.556 C30.717 48.134 30.632 47.122 31.054 46.953 L71.786 23.425 C71.871 23.425 72.292 23.256 72.798 23.256 73.304 23.256 73.641 23.341 73.726 23.425 L114.205 46.785 114.542 47.544 C114.627 47.628 114.458 47.797 114.458 47.881 Z M72.882 92.661 C61.498 92.661 52.221 83.385 52.221 72 52.221 60.615 61.498 51.339 72.882 51.339 80.557 51.339 87.303 55.555 90.845 61.88 L101.808 55.555 C96.074 45.52 85.279 38.689 72.882 38.689 54.498 38.689 39.571 53.616 39.571 72 39.571 90.384 54.498 105.311 72.882 105.311 85.195 105.311 95.989 98.565 101.724 88.613 L90.845 82.204 C87.303 88.445 80.557 92.661 72.882 92.661 Z" fill="#9c033a" fill-opacity="1" stroke="none"/>
 </g>
</svg>
