<?xml version="1.0" encoding="UTF-8"?>
<svg width="144px" height="144px" viewBox="0 0 144 144" xmlns="http://www.w3.org/2000/svg" xmlns:xlink="http://www.w3.org/1999/xlink" version="1.1">
 <!-- Generated by Pixelmator Pro 2.0.2 -->
 <defs>
  <path id="Rounded-Rectangle" d="M32 0 C14.327 0 0 14.327 0 32 L0 112 C0 129.673 14.327 144 32 144 L112 144 C129.673 144 144 129.673 144 112 L144 32 C144 14.327 129.673 0 112 0 Z"/>
 </defs>
 <use id="Rounded-Rectangle-1" xlink:href="#Rounded-Rectangle" fill="#ffffff" fill-opacity="1" stroke="none"/>
 <defs>
  <path id="stroke-path" d="M115.859 142.25 L121.75 140.891 128.453 137.672 134.063 133.047 138.453 127.172 141.328 120.391 142.484 112.719 142.484 31.25 141.703 25.141 140.375 20.797 137.688 15.563 135.047 12.031 130.875 8.047 125.875 4.844 121.734 3.109 117.422 1.984 111.875 1.5 32.031 1.5 25.125 2.297 19.422 4.203 14.375 7.109 9.906 10.984 6.25 15.656 3.594 20.828 1.984 26.563 1.5 32.125 1.5 112.719 2.672 120.406 4.188 124.563 6.297 128.438 8.938 131.984 13.109 135.969 18.109 139.172 22.25 140.906 26.563 142.031 32.125 142.5 Z"/>
 </defs>
 <use id="Rounded-Rectangle-2" stroke="#000000" stroke-opacity="1" stroke-linecap="round" fill="none" stroke-width="3" xlink:href="#stroke-path"/>
 <g id="New-Group">
  <path id="Path" d="M94.102 21.072 L87.635 21.072 94.361 28.371 94.361 31.846 80.507 31.846 80.507 27.777 87.233 27.777 80.507 20.478 80.507 17 94.102 17 Z M77.761 21.072 L71.293 21.072 78.019 28.371 78.019 31.846 64.165 31.846 64.165 27.777 70.891 27.777 64.165 20.478 64.165 17 77.761 17 Z M61.579 21.238 L54.6 21.238 54.6 27.607 61.579 27.607 61.579 31.846 49.639 31.846 49.639 17 61.579 17 Z" fill="#131313" fill-opacity="1" stroke="none"/>
  <path id="Path-1" d="M40.129 118.165 L33.037 38.622 110.962 38.622 103.864 118.152 71.952 127 Z" fill="#1572b6" fill-opacity="1" stroke="none"/>
  <path id="Path-2" d="M72.001 120.237 L97.786 113.088 103.853 45.127 72.001 45.127 Z" fill="#33a9dc" fill-opacity="1" stroke="none"/>
  <path id="Path-3" d="M72 73.944 L84.909 73.944 85.801 63.955 72 63.955 72 54.199 96.463 54.199 96.229 56.816 93.832 83.699 72 83.699 Z" fill="#ffffff" fill-opacity="1" stroke="none"/>
  <path id="Path-4" d="M72.059 99.281 L72.016 99.293 61.151 96.359 60.456 88.578 50.664 88.578 52.031 103.896 72.014 109.443 72.06 109.43 72.06 99.281 Z" fill="#ebebeb" fill-opacity="1" stroke="none"/>
  <path id="Path-5" d="M84.08 83.287 L82.905 96.352 72.024 99.288 72.024 109.438 92.024 103.896 92.171 102.247 93.868 83.287 Z" fill="#ffffff" fill-opacity="1" stroke="none"/>
  <path id="Path-6" d="M72.034 54.199 L72.034 63.954 48.47 63.954 48.274 61.762 47.83 56.816 47.596 54.199 Z M72 73.945 L72 83.701 61.273 83.701 61.078 81.509 60.633 76.563 60.399 73.945 Z" fill="#ebebeb" fill-opacity="1" stroke="none"/>
 </g>
</svg>
