<?xml version="1.0" encoding="UTF-8"?>
<svg width="144px" height="144px" viewBox="0 0 144 144" xmlns="http://www.w3.org/2000/svg" xmlns:xlink="http://www.w3.org/1999/xlink" version="1.1">
 <!-- Generated by Pixelmator Pro 2.0.2 -->
 <path id="Rounded-Rectangle" d="M16 0 C7.164 0 0 7.164 0 16 L0 128 C0 136.836 7.164 144 16 144 L128 144 C136.836 144 144 136.836 144 128 L144 16 C144 7.164 136.836 0 128 0 Z" fill="#ffffff" fill-opacity="1" stroke="none"/>
 <g id="group">
  <path id="Path" d="M79.79 61.497 L88.773 61.497 88.773 70.638 93.304 70.638 C95.37 70.638 97.517 70.241 99.504 69.605 100.458 69.287 101.571 68.81 102.525 68.254 101.253 66.584 100.617 64.518 100.458 62.451 100.219 59.669 100.776 56.012 102.684 53.866 L103.638 52.753 104.75 53.627 C107.612 55.933 109.917 59.033 110.394 62.689 113.812 61.656 117.787 61.894 120.808 63.643 L122 64.359 121.364 65.63 C118.82 70.559 113.494 72.149 108.328 71.831 100.537 91.147 83.685 100.289 63.176 100.289 52.604 100.289 42.906 96.314 37.342 86.934 L37.262 86.775 36.467 85.106 C34.56 80.972 34.003 76.441 34.401 71.91 L34.56 70.559 42.191 70.559 42.191 61.497 51.173 61.497 51.173 52.594 69.059 52.594 69.059 43.611 79.79 43.611 Z" fill="#3a4d54" fill-opacity="1" stroke="none"/>
  <path id="Path-1" d="M108.884 64.915 C109.52 60.225 106.022 56.568 103.797 54.82 101.332 57.681 100.935 65.312 104.83 68.492 102.604 70.4 98.073 72.228 93.304 72.228 L35.911 72.228 C35.434 77.157 36.308 81.688 38.296 85.583 L38.932 86.775 C39.329 87.491 39.806 88.126 40.283 88.842 42.668 89.001 44.814 89.08 46.801 89.001 50.696 88.921 53.876 88.444 56.34 87.65 56.738 87.491 57.056 87.729 57.215 88.047 57.374 88.444 57.135 88.762 56.817 88.921 56.499 89.001 56.181 89.16 55.784 89.239 53.876 89.796 51.809 90.114 49.186 90.273 L48.709 90.273 C47.676 90.352 46.563 90.352 45.37 90.352 44.099 90.352 42.906 90.352 41.475 90.273 46.245 95.678 53.717 98.858 63.097 98.858 82.97 98.858 99.822 90.034 107.215 70.32 112.541 70.877 117.628 69.526 119.933 64.995 116.356 62.848 111.587 63.564 108.884 64.915 Z" fill="#00aada" fill-opacity="1" stroke="none"/>
  <path id="Path-2" d="M108.884 64.915 C109.52 60.225 106.022 56.568 103.797 54.82 101.332 57.681 100.935 65.312 104.83 68.492 102.604 70.4 98.073 72.228 93.304 72.228 L39.25 72.228 C39.011 79.78 41.793 85.503 46.801 88.921 50.696 88.842 53.876 88.365 56.34 87.57 56.738 87.411 57.056 87.65 57.215 87.967 57.374 88.365 57.135 88.683 56.817 88.842 56.499 88.921 56.181 89.08 55.784 89.16 53.876 89.716 51.65 90.114 49.027 90.273 L48.948 90.193 C55.704 93.691 65.482 93.611 76.769 89.319 89.329 84.47 101.094 75.249 109.281 64.756 109.122 64.836 108.963 64.836 108.884 64.915 Z" fill="#28b8eb" fill-opacity="1" stroke="none"/>
  <path id="Path-3" d="M35.99 78.19 C36.308 80.813 37.103 83.278 38.296 85.583 L38.932 86.775 C39.329 87.491 39.806 88.126 40.283 88.842 42.668 89.001 44.814 89.08 46.801 89.001 50.696 88.921 53.876 88.444 56.34 87.65 56.738 87.491 57.056 87.729 57.215 88.047 57.374 88.444 57.135 88.762 56.817 88.921 56.499 89.001 56.181 89.16 55.784 89.239 53.876 89.796 51.65 90.193 49.027 90.352 L48.709 90.352 C47.676 90.432 46.563 90.432 45.45 90.432 44.178 90.432 42.906 90.432 41.555 90.352 46.324 95.758 53.876 98.937 63.256 98.937 80.267 98.937 95.052 92.498 103.638 78.27 L35.99 78.27 Z" fill="#028bb8" fill-opacity="1" stroke="none"/>
  <path id="Path-4" d="M39.806 78.19 C40.839 82.801 43.224 86.457 46.801 88.921 50.696 88.842 53.876 88.365 56.34 87.57 56.738 87.411 57.056 87.65 57.215 87.967 57.374 88.365 57.135 88.683 56.817 88.842 56.499 88.921 56.181 89.08 55.784 89.16 53.876 89.716 51.65 90.114 48.948 90.273 55.704 93.77 65.482 93.691 76.69 89.398 83.447 86.775 90.045 82.88 95.927 78.19 Z" fill="#019bc6" fill-opacity="1" stroke="none"/>
  <path id="Path-5" d="M43.701 63.007 L51.491 63.007 51.491 70.797 43.701 70.797 Z M44.337 63.643 L44.973 63.643 44.973 70.082 44.337 70.082 Z M45.45 63.643 L46.086 63.643 46.086 70.082 45.45 70.082 Z M46.642 63.643 L47.278 63.643 47.278 70.082 46.642 70.082 Z M47.835 63.643 L48.471 63.643 48.471 70.082 47.835 70.082 Z M49.027 63.643 L49.663 63.643 49.663 70.082 49.027 70.082 Z M50.219 63.643 L50.855 63.643 50.855 70.082 50.219 70.082 Z M52.604 54.104 L60.394 54.104 60.394 61.894 52.604 61.894 Z M53.32 54.74 L53.955 54.74 53.955 61.179 53.32 61.179 Z M54.432 54.74 L55.068 54.74 55.068 61.179 54.432 61.179 Z M55.625 54.74 L56.261 54.74 56.261 61.179 55.625 61.179 Z M56.817 54.74 L57.453 54.74 57.453 61.179 56.817 61.179 Z M57.93 54.74 L58.566 54.74 58.566 61.179 57.93 61.179 Z M59.122 54.74 L59.758 54.74 59.758 61.179 59.122 61.179 Z" fill="#00acd3" fill-opacity="1" stroke="none"/>
  <path id="Path-6" d="M52.604 63.007 L60.394 63.007 60.394 70.797 52.604 70.797 Z M53.32 63.643 L53.955 63.643 53.955 70.082 53.32 70.082 Z M54.432 63.643 L55.068 63.643 55.068 70.082 54.432 70.082 Z M55.625 63.643 L56.261 63.643 56.261 70.082 55.625 70.082 Z M56.817 63.643 L57.453 63.643 57.453 70.082 56.817 70.082 Z M57.93 63.643 L58.566 63.643 58.566 70.082 57.93 70.082 Z M59.122 63.643 L59.758 63.643 59.758 70.082 59.122 70.082 Z" fill="#23c2ee" fill-opacity="1" stroke="none"/>
  <path id="Path-7" d="M61.587 63.007 L69.377 63.007 69.377 70.797 61.587 70.797 Z M62.223 63.643 L62.859 63.643 62.859 70.082 62.223 70.082 Z M63.415 63.643 L64.051 63.643 64.051 70.082 63.415 70.082 Z M64.607 63.643 L65.243 63.643 65.243 70.082 64.607 70.082 Z M65.72 63.643 L66.356 63.643 66.356 70.082 65.72 70.082 Z M66.913 63.643 L67.548 63.643 67.548 70.082 66.913 70.082 Z M68.105 63.643 L68.741 63.643 68.741 70.082 68.105 70.082 Z" fill="#00acd3" fill-opacity="1" stroke="none"/>
  <path id="Path-8" d="M61.587 54.104 L69.377 54.104 69.377 61.894 61.587 61.894 Z M62.223 54.74 L62.859 54.74 62.859 61.179 62.223 61.179 Z M63.415 54.74 L64.051 54.74 64.051 61.179 63.415 61.179 Z M64.607 54.74 L65.243 54.74 65.243 61.179 64.607 61.179 Z M65.72 54.74 L66.356 54.74 66.356 61.179 65.72 61.179 Z M66.913 54.74 L67.548 54.74 67.548 61.179 66.913 61.179 Z M68.105 54.74 L68.741 54.74 68.741 61.179 68.105 61.179 Z M70.569 63.007 L78.359 63.007 78.359 70.797 70.569 70.797 Z M71.205 63.643 L71.841 63.643 71.841 70.082 71.205 70.082 Z M72.397 63.643 L73.033 63.643 73.033 70.082 72.397 70.082 Z M73.51 63.643 L74.146 63.643 74.146 70.082 73.51 70.082 Z M74.703 63.643 L75.339 63.643 75.339 70.082 74.703 70.082 Z M75.895 63.643 L76.531 63.643 76.531 70.082 75.895 70.082 Z M77.087 63.643 L77.723 63.643 77.723 70.082 77.087 70.082 Z" fill="#23c2ee" fill-opacity="1" stroke="none"/>
  <path id="Path-9" d="M70.569 54.104 L78.359 54.104 78.359 61.894 70.569 61.894 Z M71.205 54.74 L71.841 54.74 71.841 61.179 71.205 61.179 Z M72.397 54.74 L73.033 54.74 73.033 61.179 72.397 61.179 Z M73.51 54.74 L74.146 54.74 74.146 61.179 73.51 61.179 Z M74.703 54.74 L75.339 54.74 75.339 61.179 74.703 61.179 Z M75.895 54.74 L76.531 54.74 76.531 61.179 75.895 61.179 Z M77.087 54.74 L77.723 54.74 77.723 61.179 77.087 61.179 Z" fill="#00acd3" fill-opacity="1" stroke="none"/>
  <path id="Path-10" d="M70.569 45.122 L78.359 45.122 78.359 52.912 70.569 52.912 Z M71.205 45.758 L71.841 45.758 71.841 52.196 71.205 52.196 Z M72.397 45.758 L73.033 45.758 73.033 52.196 72.397 52.196 Z M73.51 45.758 L74.146 45.758 74.146 52.196 73.51 52.196 Z M74.703 45.758 L75.339 45.758 75.339 52.196 74.703 52.196 Z M75.895 45.758 L76.531 45.758 76.531 52.196 75.895 52.196 Z M77.087 45.758 L77.723 45.758 77.723 52.196 77.087 52.196 Z" fill="#23c2ee" fill-opacity="1" stroke="none"/>
  <path id="Path-11" d="M79.552 63.007 L87.342 63.007 87.342 70.797 79.552 70.797 Z M80.188 63.643 L80.824 63.643 80.824 70.082 80.188 70.082 Z M81.3 63.643 L81.936 63.643 81.936 70.082 81.3 70.082 Z M82.493 63.643 L83.129 63.643 83.129 70.082 82.493 70.082 Z M83.685 63.643 L84.321 63.643 84.321 70.082 83.685 70.082 Z M84.878 63.643 L85.514 63.643 85.514 70.082 84.878 70.082 Z M86.07 63.643 L86.706 63.643 86.706 70.082 86.07 70.082 Z" fill="#00acd3" fill-opacity="1" stroke="none"/>
  <path id="Path-12" d="M59.917 83.357 C61.11 83.357 62.064 84.311 62.064 85.503 62.064 86.696 61.11 87.65 59.917 87.65 58.725 87.65 57.771 86.696 57.771 85.503 57.771 84.311 58.725 83.357 59.917 83.357" fill="#d4eef1" fill-opacity="1" stroke="none"/>
  <path id="Path-13" d="M59.917 83.993 C60.076 83.993 60.315 83.993 60.474 84.072 60.315 84.152 60.156 84.39 60.156 84.629 60.156 84.947 60.474 85.265 60.792 85.265 61.03 85.265 61.269 85.106 61.348 84.947 61.428 85.106 61.428 85.344 61.428 85.503 61.428 86.378 60.712 87.014 59.917 87.014 59.043 87.014 58.407 86.298 58.407 85.503 58.407 84.708 59.043 83.993 59.917 83.993 M22 78.985 L121.682 78.985 C119.536 78.429 114.846 77.713 115.561 74.851 111.587 79.382 102.127 78.031 99.663 75.805 96.96 79.7 81.38 78.19 80.347 75.169 77.008 79.144 66.595 79.144 63.256 75.169 62.143 78.19 46.563 79.7 43.94 75.805 41.555 78.031 32.016 79.382 28.041 74.851 28.916 77.634 24.146 78.429 22 78.985" fill="#3a4d54" fill-opacity="1" stroke="none"/>
  <path id="Path-14" d="M65.641 98.858 C60.315 96.314 57.453 92.896 55.784 89.16 53.797 89.716 51.412 90.114 48.709 90.273 47.676 90.352 46.563 90.352 45.45 90.352 44.099 90.352 42.747 90.352 41.316 90.273 46.086 95.042 52.127 98.778 63.176 98.858 Z" fill="#bfdbe0" fill-opacity="1" stroke="none"/>
  <path id="Path-15" d="M57.771 92.578 C57.056 91.545 56.34 90.352 55.784 89.16 53.797 89.716 51.412 90.114 48.709 90.273 50.537 91.227 53.24 92.181 57.771 92.578 Z" fill="#d4eef1" fill-opacity="1" stroke="none"/>
 </g>
</svg>
