<?xml version="1.0" encoding="UTF-8"?>
<svg width="144px" height="144px" viewBox="0 0 144 144" xmlns="http://www.w3.org/2000/svg" xmlns:xlink="http://www.w3.org/1999/xlink" version="1.1">
 <!-- Generated by Pixelmator Pro 2.0.2 -->
 <path id="Rounded-Rectangle" d="M16 0 C7.164 0 0 7.164 0 16 L0 128 C0 136.836 7.164 144 16 144 L128 144 C136.836 144 144 136.836 144 128 L144 16 C144 7.164 136.836 0 128 0 Z" fill="#ffffff" fill-opacity="1" stroke="none"/>
 <g id="original">
  <path id="Path" d="M113.003 94.527 C110.019 95.287 108.174 94.56 106.518 92.074 102.802 86.506 98.699 81.193 94.74 75.782 94.229 75.082 93.699 74.395 93.038 73.525 88.354 79.846 83.675 85.866 79.285 92.128 77.715 94.366 76.066 95.341 73.135 94.549 L90.748 70.907 74.349 49.558 C77.169 49.008 79.119 49.289 80.847 51.815 84.662 57.389 88.869 62.696 93.064 68.31 97.284 62.715 101.439 57.401 105.365 51.879 106.941 49.641 108.636 48.79 111.469 49.614 109.323 52.461 107.223 55.261 105.11 58.042 102.257 61.792 99.457 65.587 96.499 69.258 95.446 70.567 95.616 71.417 96.558 72.654 102.029 79.845 107.434 87.108 113.003 94.527 Z" fill="#000000" fill-opacity="1" stroke="none"/>
  <path id="Path-1" d="M30.988 70.518 C31.459 68.156 31.773 65.748 32.427 63.432 36.352 49.409 52.448 43.578 63.507 52.267 69.985 57.364 71.595 64.548 71.275 72.649 L34.763 72.651 C34.215 87.184 44.678 95.958 58.013 91.481 62.691 89.911 65.446 86.246 66.826 81.666 67.526 79.369 68.684 79.009 70.844 79.663 69.738 85.395 67.232 90.185 61.998 93.182 54.146 97.672 42.937 96.22 37.041 89.984 33.56 86.32 32.081 81.76 31.427 76.833 31.328 76.047 31.125 75.275 30.968 74.497 Q30.988 72.507 30.988 70.518 Z M34.829 69.543 L67.827 69.541 C67.61 59.033 61.066 51.567 52.122 51.502 42.307 51.424 35.253 58.714 34.829 69.543 Z" fill="#000000" fill-opacity="1" stroke="none"/>
 </g>
</svg>
