<?xml version="1.0" encoding="UTF-8"?>
<svg width="144px" height="144px" viewBox="0 0 144 144" xmlns="http://www.w3.org/2000/svg" xmlns:xlink="http://www.w3.org/1999/xlink" version="1.1">
 <!-- Generated by Pixelmator Pro 2.0.2 -->
 <path id="Rounded-Rectangle" d="M16 0 C7.164 0 0 7.164 0 16 L0 128 C0 136.836 7.164 144 16 144 L128 144 C136.836 144 144 136.836 144 128 L144 16 C144 7.164 136.836 0 128 0 Z" fill="#ffffff" fill-opacity="1" stroke="none"/>
 <g id="group">
  <path id="Path" d="M55.784 102.838 C52.187 100.007 48.352 97.294 45.725 93.476 40.206 86.742 35.954 78.936 33.055 70.739 31.295 65.407 30.699 59.693 28.429 54.566 26.065 50.841 28.837 46.777 32.91 45.595 34.721 45.246 37.919 43.529 34.067 44.762 30.614 47.295 30.283 42.457 33.82 42.151 36.235 41.828 37.128 39.855 36.303 38.07 33.71 36.377 42.595 34.515 38.123 31.99 33.463 26.964 44.636 25.995 41.881 31.709 41.226 36.097 49.687 30.901 47.723 35.969 49.721 38.401 55.206 36.522 55.061 39.94 57.969 40.144 58.972 42.585 61.694 42.772 64.525 44.047 69.653 45.059 70.613 48.248 67.807 50.467 61.302 43.656 60.996 49.812 61.847 58.902 61.625 68.264 64.95 76.921 66.523 82.159 70.333 86.283 73.777 90.364 77.076 94.361 81.531 97.175 86.089 99.548 90.077 101.427 94.38 102.677 98.733 103.459 100.494 102.107 103.614 97.099 106.361 99.207 106.497 101.588 100.902 104.173 106.097 103.918 109.15 103 111.267 106.274 113.784 103.314 116.097 106.061 123.41 101.563 121.76 107.166 119.532 108.603 116.284 107.736 114.048 109.717 110.366 107.881 107.441 111.358 103.368 110.925 98.844 111.733 94.244 112.064 89.652 112.064 82.127 111.469 74.44 111.222 67.289 108.603 63.258 107.43 59.321 105.134 55.784 102.838 Z M62.136 105.593 C66.073 107.294 69.925 109.088 74.236 109.632 81.081 110.585 88.155 112.047 95.026 110.712 91.914 109.309 88.7 111.256 85.604 109.709 81.889 110.508 77.901 109.505 74.125 109.012 69.831 107.098 65.197 105.78 61.175 103.297 56.149 101.461 63.777 105.653 65.129 105.993 68.266 107.779 61.677 105.075 60.741 104.335 58.114 102.855 57.774 103.17 60.478 104.666 61.022 104.981 61.566 105.321 62.136 105.593 Z M54.644 100.296 C58.462 101.707 54.627 97.609 52.884 97.847 52.11 96.503 49.925 95.653 51.464 94.93 48.692 95.891 48.556 91.274 47.255 91.929 44.322 91.002 46.116 87.72 42.621 85.704 42.306 83.579 39.152 81.742 38.148 78.536 37.706 76.895 34.585 72.193 36.499 76.572 38.131 80.79 40.997 84.403 43.386 88.009 45.24 91.444 47.434 95.032 50.801 97.175 51.94 98.281 53.037 99.956 54.644 100.296 Z M43.65 88.23 C43.786 87.652 44.347 89.471 43.65 88.23 Z M59.211 101.988 C60.061 101.614 57.995 101.512 59.211 101.988 Z M61.285 102.745 C61.073 101.699 60.342 103.331 61.285 102.745 Z M63.879 103.825 C65.112 102.651 61.974 103.085 63.879 103.825 Z M68.317 106.299 C69.074 105.194 65.92 105.882 68.317 106.299 Z M59.789 100.355 C61.702 99.114 57.314 100.338 59.789 100.355 Z M61.736 101.325 C61.677 100.67 61.039 101.614 61.736 101.325 Z M71.455 107.387 C73.02 108.374 80.579 109.547 75.843 107.796 75.052 107.966 67.059 105.534 71.455 107.387 Z M56.022 95.372 C55.869 94.718 53.598 94.65 56.022 95.372 Z M60.546 98.008 C61.728 97.192 58.105 97.379 60.546 98.008 Z M64.355 100.347 C66.039 99.709 61.608 99.709 64.355 100.347 Z M54.177 93.366 C56.013 94.769 61.574 93.544 56.983 92.524 54.899 91.41 50.189 90.653 53.394 93.196 Z M66.931 101.155 C67.697 99.854 63.726 100.406 66.931 101.155 Z M63.054 98.068 C67.535 99.335 59.287 95.228 61.949 97.6 L62.544 97.872 Z M70.826 102.558 C75.069 102.6 66.991 101.979 70.826 102.558 Z M52.544 90.908 C52.383 90.118 51.498 90.976 52.544 90.908 Z M78.003 106.588 C78.122 105.16 76.625 107.651 78.003 106.588 Z M59.789 95.347 C59.534 94.599 58.462 95.313 59.789 95.347 Z M52.952 90.415 C55.384 90.271 49.61 89.344 52.952 90.415 Z M44.84 85.177 C44.534 84.004 42.187 83.077 44.84 85.177 Z M66.124 98.68 C65.682 98.17 65.911 98.791 66.124 98.68 Z M79.372 106.809 C79.329 106.035 78.649 107.107 79.372 106.809 Z M64.95 97.473 C65.188 96.469 62.875 97.167 64.95 97.473 Z M55.087 91.214 C56.898 91.019 52.178 89.99 55.087 91.214 Z M71.778 101.588 C74.601 100.466 69.023 101.044 71.778 101.588 Z M63.097 95.696 C66.353 96.112 59.219 93.476 62.382 95.458 Z M74.414 102.66 C77.458 100.84 76.455 106.92 79.576 103.17 82.654 100.925 76.914 105.95 80.707 103.57 83.453 101.733 87.501 104.437 90.06 105.321 91.897 105.228 93.691 106.911 95.579 105.891 99.21 104.913 88.47 104.437 91.285 102.702 87.96 103.672 85.502 101.546 83.87 99.42 80.137 98.561 75.826 96.656 73.964 93.349 73.207 92.107 75.061 93.527 73.309 91.495 71.064 89.497 69.942 87.226 68.437 84.795 66.634 83.834 66.421 81.002 66.243 84.701 66.26 82.371 64.066 80.798 63.53 81.453 63.522 79.208 65.877 80.33 64.227 78.672 63.87 76.342 62.705 73.919 62.357 71.291 61.813 70.024 62.28 67.312 60.495 70.178 59.848 73.213 60.282 66.453 61.294 68.681 62.62 66.411 60.818 66.674 60.741 66.989 61.608 65.067 61.285 62.346 60.512 63.383 60.971 61.351 61.243 55.901 59.823 56.87 60.682 54.744 61.455 47.142 57.723 50.042 56.209 50.068 53.598 50.586 52.357 51.207 56.234 53.341 51.966 51.981 50.384 51.641 50.18 53.622 48.616 52.763 46.66 52.78 49.781 53.163 45.138 55.969 43.352 54.88 41.022 55.994 45.359 58.766 43.395 59.625 43.633 60.918 39.832 59.157 40.129 62.142 37.876 61.19 39.823 65.679 40.946 64.166 44.781 65.203 43.65 67.576 43.743 69.82 43.114 71.13 40.657 66.742 43.199 66.946 41.192 63.69 40.98 65.773 39.322 67.278 38.939 67.389 43.565 69.429 40.657 70.441 43.216 70.841 43.293 73.077 43.811 74.489 45.35 76.087 45.036 72.72 46.872 74.642 45.708 72.924 40.708 69.812 44.73 70.807 44.704 69.081 43.998 67.686 45.24 67.72 46.464 65.509 43.956 73.179 46.711 70.365 47.476 70.033 47.663 68.154 49.032 70.543 51.022 72.499 49.755 73.919 46.94 72.125 47.442 73.834 50.699 74.438 50.087 77.108 50.733 79.455 51.643 78.587 52.434 78.451 53.054 80.73 53.403 79.055 53.437 77.966 56.277 78.579 55.614 80.254 56.498 81.427 58.454 82.312 53.701 75.441 57.059 79.361 60.597 82.55 58.386 83.885 55.214 83.374 57.221 83.213 57.867 86.087 60.376 85.985 62.663 87.073 64.219 91.257 60.273 89.514 58.904 88.281 54.058 86.759 58.02 89.106 61.677 90.798 64.576 91.81 68.105 93.935 70.622 95.738 71.719 97.796 72.671 98.204 70.554 99.216 66.285 97.396 69.457 96.835 67.476 96.478 65.256 95.475 67.153 97.94 68.76 99.284 72.858 99.148 73.598 99.292 72.977 100.661 71.906 100.772 73.623 100.874 71.71 101.911 74.236 102.073 74.414 102.66 Z M70.503 91.606 C69.338 90.39 69.04 88.111 70.299 90.092 70.936 90.347 72.365 93.816 70.503 91.606 Z M83.249 99.701 C83.972 99.65 83.266 100.253 83.249 99.701 Z M68.666 88.621 C68.615 86.776 69.083 90.041 68.666 88.621 Z M67.399 86.912 C65.928 84.089 69.244 87.72 67.399 86.912 Z M52.042 76.317 C52.901 76.087 52.468 77.788 52.042 76.317 Z M64.261 82.941 C64.789 80.96 64.882 84.607 64.261 82.941 Z M55.631 76.938 C55.027 75.841 56.906 77.966 55.631 76.938 Z M63.037 79.31 C61.651 76.206 64.023 77.609 63.343 79.82 Z M50.265 70.798 C49.645 69.778 48.624 66.785 48.947 65.875 49.245 67.363 52.11 72.278 50.35 67.907 48.412 64.251 52.672 69.098 53.114 70.007 53.318 70.917 51.915 69.761 52.867 71.887 51.133 69.463 51.847 73.23 50.265 70.798 Z M46.32 68.077 C46.481 65.705 47.221 69.701 46.32 68.077 Z M48.088 68.689 C48.939 66.895 49.525 71.181 48.088 68.689 Z M43.82 65.382 C42.349 63.919 41.286 62.576 43.888 64.472 44.891 64.514 41.66 61.411 44.126 63.486 46.728 63.962 45.41 67.746 43.82 65.382 Z M46.065 65.322 C46.915 64.48 46.515 66.156 46.065 65.322 Z M47.442 65.764 C46.15 63.341 49.015 66.785 47.442 65.764 Z M44.704 63.145 C40.436 59.344 50.07 65.135 45.401 63.851 Z M56.94 70.254 C55.087 69.149 56.447 62.448 57.076 67.031 58.87 66.453 56.974 69.395 58.318 69.37 58.114 71.223 57.51 71.895 56.94 70.254 Z M61.472 72.933 C61.651 70.909 61.855 74.31 61.472 72.933 Z M60.682 72.15 C60.886 71.291 60.707 73.171 60.682 72.15 Z M45.537 61.895 C42.791 58.112 53.513 65.73 47.298 62.856 46.643 62.678 45.861 62.618 45.537 61.895 Z M54.262 66.513 C53.998 63.324 54.84 67.04 54.262 66.513 Z M60.877 70.764 C61.387 68.945 60.92 71.963 60.877 70.764 Z M45.963 60.45 C47.595 60.101 52.723 63.315 48.012 61.368 47.485 60.782 46.371 61.045 45.963 60.45 Z M59.967 67.431 C60.137 64.166 60.945 65.484 59.976 67.899 Z M47.17 59.31 C47.833 58.333 45.401 54.906 47.519 58.078 48.437 58.8 50.163 59.293 48.633 59.6 51.048 61.725 48.054 60.178 47.17 59.31 Z M59.279 66.411 C59.738 62.695 59.678 68.587 59.279 66.411 Z M45.784 55.884 C46.294 55.663 46.056 56.555 45.784 55.884 Z M48.939 57.763 C49.755 56.054 50.444 59.659 48.939 57.763 Z M57.842 62.712 C57.842 62.057 58.012 63.664 57.842 62.712 Z M57.331 61.572 C56.098 58.52 58.479 63.188 57.331 61.572 Z M56.575 59.574 C56.362 58.316 57.28 61.156 56.575 59.574 Z M57.808 57.567 C56.957 56.071 58.879 50.977 59.092 54.141 58.199 56.598 58.836 57.975 59.457 54.676 60.614 52.074 59.211 59.795 57.808 57.567 Z M59.075 49.991 C59.449 49.54 59.16 50.544 59.075 49.991 Z M56.957 91.759 C56.456 91.316 57.017 92.039 56.957 91.759 Z M61.319 93.969 C63.751 94.599 63.734 93.595 61.54 93.298 60.359 92.201 56.634 91.036 59.967 93.162 60.197 93.714 60.894 93.697 61.319 93.969 Z M52.697 88.238 C54.032 89.242 57.74 91.061 54.602 88.621 55.656 87.396 52.578 86.742 53.598 85.917 50.997 84.327 51.549 84.471 53.369 84.522 50.248 83.128 53.82 83.23 53.65 82.516 52.442 82.278 47.672 80.39 50.478 82.669 47.621 81.215 49.798 83.213 48.93 83 46.005 82.201 51.532 85.228 48.471 84.471 50.146 85.798 52.978 87.873 49.177 85.874 48.692 86.597 51.906 87.694 52.697 88.238 Z M57.263 90.866 C62.816 92.651 54.542 88.672 57.263 90.866 Z M80.647 105.024 C80.715 103.918 79.882 105.967 80.647 105.024 Z M83.045 106.035 C84.329 104.794 83.096 108.017 85.171 105.729 85.196 104.097 85.111 103.127 82.79 105.117 82.152 105.474 81.863 106.979 83.045 106.035 Z M44.908 82.082 C44.509 80.534 42.145 80.543 44.908 82.082 Z M47.468 83.766 C46.515 82.184 44.066 82.337 47.468 83.766 Z M62.068 92.566 C63.496 93.833 68.615 93.493 63.794 92.719 63.088 91.665 59.27 91.92 62.068 92.566 Z M82.135 104.956 C84.32 103.119 80.009 105.78 82.135 104.956 Z M86.693 108.093 C86.71 107.507 85.749 108.348 86.693 108.093 Z M86.701 107.268 C89.133 104.692 84.346 107.421 86.701 107.268 Z M38.59 76.802 C36.524 73.851 37.306 72.524 35.308 70.11 34.925 68.264 31.881 64.081 33.735 68.511 35.427 71.104 35.929 75.118 38.59 76.802 Z M85.936 106.452 C90.409 103.561 84.108 105.194 85.936 106.452 Z M89.346 107.787 C91.591 105.865 87.934 107.387 89.346 107.787 Z M44.143 78.817 C44.789 77.864 42.493 78.698 44.143 78.817 Z M88.64 106.869 C90.808 105.474 88.138 105.687 88.249 106.996 Z M59.236 88.34 C59.16 87.396 58.088 88.417 59.236 88.34 Z M61.056 89.386 C60.469 88.213 60.163 89.565 61.056 89.386 Z M92.118 107.813 C94.898 105.806 90.434 107.43 91.54 108.195 Z M91.047 107.302 C93.317 105.406 88.666 108.144 91.047 107.302 Z M96.48 110.916 C98.002 109.904 94.635 110.593 96.48 110.916 Z M45.537 78.128 C47.57 78.587 53.667 83.136 50.07 78.443 48.224 77.898 49.33 73.392 47.451 74.191 48.709 76.3 48.488 77.193 45.835 75.866 42.51 74.242 43.964 76.665 44.619 77.337 43.735 77.55 45.801 78.111 45.537 78.128 Z M36.269 70.807 C36.635 69.302 32.91 62.516 34.509 67.406 35.087 68.434 35.028 70.373 36.269 70.807 Z M53.284 81.3 C52.238 80.424 53.233 81.172 53.284 81.3 Z M55.86 81.903 C55.86 80.305 53.012 81.249 55.86 81.903 Z M78.224 95.993 C77.799 94.905 76.54 95.976 78.224 95.993 Z M79.295 96.784 C79.142 96.172 78.683 96.903 79.295 96.784 Z M88.164 102.362 C89.014 101.733 87.101 102.286 88.164 102.362 Z M40.895 71.989 C43.335 71.045 38.284 71.317 40.895 71.989 Z M76.259 94.267 C76.225 92.685 74.703 94.658 76.259 94.267 Z M39.934 69.744 C41.498 69.217 38.48 69.395 39.934 69.744 Z M44.475 71.946 C44.449 71.428 43.998 72.142 44.475 71.946 Z M99.932 105.95 C101.948 105.542 106.539 106.979 107.279 105.415 104.83 105.355 98.818 103.689 98.538 105.806 L99.074 105.891 Z M45.92 72.312 C45.963 70.713 44.679 72.252 45.92 72.312 Z M33.973 64.021 C33.429 60.977 31.907 63.562 33.973 64.021 Z M36.822 64.736 C36.856 63.758 34.211 63.86 36.822 64.736 Z M38.446 65.535 C37.978 65.161 38.08 66.019 38.446 65.535 Z M48.701 72.108 C49.185 71.666 47.553 71.785 48.701 72.108 Z M37.366 63.732 C37.085 61.428 34.067 63.392 37.366 63.732 Z M31.524 59.94 C31.439 58.877 30.955 60.339 31.524 59.94 Z M32.392 59.285 C32.247 58.026 31.643 59.447 32.392 59.285 Z M37.196 62.151 C39.228 61.351 33.497 60.501 36.779 61.997 Z M101.471 101.852 C102.772 100.661 99.822 101.486 101.471 101.852 Z M109.235 105.882 C109.754 104.343 107.925 106.078 109.235 105.882 Z M37.681 59.634 C37.902 58.146 36.073 59.931 37.681 59.634 Z M30.852 55.059 C30.487 52.959 30.538 49.26 34.05 50.51 29.364 51.445 37.298 56.334 36.295 52.474 38.267 52.567 40.146 51.309 39.118 53.222 43.004 52.797 45.691 49.43 49.44 49.897 52.366 49.506 55.554 49.217 58.7 48.044 61.285 47.857 63.777 45.068 62.365 43.418 58.836 43.12 55.138 43.563 51.243 44.336 46.923 45.238 42.995 46.938 38.633 47.678 34.381 48.248 39.483 49.251 38.267 49.472 36.048 50.238 40.912 50.765 37.978 51.573 36.167 51.224 34.279 50.603 35.053 48.698 30.98 49.226 27.4 50.918 30.623 55.059 Z M40.665 50.059 C41.617 46.539 45.776 52.95 42.23 50.527 41.805 50.204 41.107 49.948 40.665 50.059 Z M40.852 48.35 C42.23 47.329 41.583 48.928 40.852 48.35 Z M42.604 48.384 C42.731 46.768 46.609 49.243 43.242 48.962 Z M44.993 47.415 C45.869 46.394 45.248 48.324 44.993 47.415 Z M45.605 47.006 C47.06 45.255 53.845 45.892 48.879 46.836 47.553 45.833 46.532 47.432 45.605 47.006 Z M54.466 45.646 C54.245 40.867 58.87 47.338 54.466 45.646 Z M56.983 45.629 C57.901 43.222 60.554 44.659 57.408 45.144 57.476 45.399 57.314 46.386 56.983 45.629 Z M36.694 58.401 C39.441 56.717 33.778 56.938 36.694 58.401 Z M38.726 58.962 C39.687 57.941 36.635 58.545 38.726 58.962 Z M32.74 54.719 C34.313 53.511 30.886 54.26 32.74 54.719 Z M113.818 105.44 C113.861 104.037 112.619 106.069 113.818 105.44 Z M105.578 99.82 C105.817 98.204 104.524 99.956 105.578 99.82 Z M116.088 105.984 C118.282 105.993 122.738 105.304 117.959 105.304 117.211 105.415 113.597 105.398 116.088 105.984 Z M40.512 57.975 C42.289 57.856 43.293 56.02 40.163 56.122 35.325 55.62 44.432 57.78 39.543 57.159 38.888 57.593 40.47 58.095 40.512 57.975 Z M42.077 58.766 C41.89 57.627 41.524 59.37 42.077 58.766 Z M43.93 53.817 C44.696 52.865 42.859 53.562 43.93 53.817 Z M38.021 43.954 C41.192 42.874 45.52 41.666 47.017 44.481 45.495 42.653 46.405 40.842 47.842 43.529 49.874 46.241 50.894 42.296 49.568 41.386 51.073 43.256 52.791 44.141 50.58 41.505 52.986 38.614 45.767 41.887 44.126 41.853 43.344 42.202 35.98 43.724 38.021 43.954 Z M39.883 40.399 C41.694 39.039 46.133 41.216 43.284 39.047 43.004 38.792 37.034 40.688 39.883 40.399 Z M46.473 40.671 C48.59 40.723 45.563 37.831 48.08 39.141 47.663 37.789 45.146 37.534 43.913 36.998 43.216 38.231 45.325 40.688 46.473 40.671 Z M41.039 34.685 C41.771 33.699 39.755 35.195 41.039 34.685 Z M43.726 35.331 C47.136 34.881 42.859 33.869 43.038 35.297 Z M38.701 31.403 C36.303 28.265 43.216 31.93 40.776 28.648 38.726 27.015 36.754 30.485 38.701 31.403 Z M69.491 47.984 C70.588 46.037 64.95 45.357 68.751 47.295 69.108 47.415 69.023 48.12 69.491 47.984 Z" fill="#010101" fill-opacity="1" stroke="none"/>
 </g>
</svg>
