<?xml version="1.0" encoding="UTF-8"?>
<svg width="144px" height="144px" viewBox="0 0 144 144" xmlns="http://www.w3.org/2000/svg" xmlns:xlink="http://www.w3.org/1999/xlink" version="1.1">
 <!-- Generated by Pixelmator Pro 2.0.2 -->
 <path id="Rounded-Rectangle" d="M16 0 C7.164 0 0 7.164 0 16 L0 128 C0 136.836 7.164 144 16 144 L128 144 C136.836 144 144 136.836 144 128 L144 16 C144 7.164 136.836 0 128 0 Z" fill="#ffffff" fill-opacity="1" stroke="none"/>
 <path id="Path" d="M115.302 67.992 L76.008 28.699 C73.746 26.436 70.076 26.436 67.811 28.699 L59.652 36.859 70.002 47.21 C72.409 46.398 75.166 46.942 77.083 48.859 79.011 50.789 79.551 53.57 78.719 55.984 L88.694 65.96 C91.108 65.128 93.893 65.666 95.82 67.596 98.515 70.289 98.515 74.654 95.82 77.349 93.125 80.044 88.761 80.044 86.064 77.349 84.038 75.321 83.537 72.344 84.564 69.848 L75.261 60.545 75.26 85.028 C75.917 85.353 76.537 85.786 77.084 86.332 79.778 89.025 79.778 93.388 77.084 96.087 74.39 98.78 70.023 98.78 67.332 96.087 64.638 93.389 64.638 89.025 67.332 86.332 67.998 85.667 68.768 85.164 69.59 84.827 L69.59 60.118 C68.768 59.781 67.999 59.282 67.332 58.612 65.291 56.573 64.8 53.579 65.847 51.072 L55.642 40.868 28.699 67.81 C26.435 70.075 26.435 73.745 28.699 76.009 L67.994 115.302 C70.257 117.565 73.926 117.565 76.192 115.302 L115.303 76.192 C117.566 73.927 117.566 70.255 115.302 67.992 Z" fill="#f34f29" fill-opacity="1" stroke="none"/>
</svg>
