<?xml version="1.0" encoding="UTF-8"?>
<svg width="144px" height="144px" viewBox="0 0 144 144" xmlns="http://www.w3.org/2000/svg" xmlns:xlink="http://www.w3.org/1999/xlink" version="1.1">
 <!-- Generated by Pixelmator Pro 2.0.2 -->
 <defs>
  <path id="Rounded-Rectangle" d="M32 0 C14.327 0 0 14.327 0 32 L0 112 C0 129.673 14.327 144 32 144 L112 144 C129.673 144 144 129.673 144 112 L144 32 C144 14.327 129.673 0 112 0 Z"/>
 </defs>
 <use id="Rounded-Rectangle-1" xlink:href="#Rounded-Rectangle" fill="#ffffff" fill-opacity="1" stroke="none"/>
 <defs>
  <path id="stroke-path" d="M115.859 142.25 L121.75 140.891 128.453 137.672 134.063 133.047 138.453 127.172 141.328 120.391 142.484 112.719 142.484 31.25 141.703 25.141 140.375 20.797 137.688 15.563 135.047 12.031 130.875 8.047 125.875 4.844 121.734 3.109 117.422 1.984 111.875 1.5 32.031 1.5 25.125 2.297 19.422 4.203 14.375 7.109 9.906 10.984 6.25 15.656 3.594 20.828 1.984 26.563 1.5 32.125 1.5 112.719 2.672 120.406 4.188 124.563 6.297 128.438 8.938 131.984 13.109 135.969 18.109 139.172 22.25 140.906 26.563 142.031 32.125 142.5 Z"/>
 </defs>
 <use id="Rounded-Rectangle-2" stroke="#000000" stroke-opacity="1" stroke-linecap="round" fill="none" stroke-width="3" xlink:href="#stroke-path"/>
 <path id="Path" d="M115.302 67.992 L76.008 28.699 C73.746 26.436 70.076 26.436 67.811 28.699 L59.652 36.859 70.002 47.21 C72.409 46.398 75.166 46.942 77.083 48.859 79.011 50.789 79.551 53.57 78.719 55.984 L88.694 65.96 C91.108 65.128 93.893 65.666 95.82 67.596 98.515 70.289 98.515 74.654 95.82 77.349 93.125 80.044 88.761 80.044 86.064 77.349 84.038 75.321 83.537 72.344 84.564 69.848 L75.261 60.545 75.26 85.028 C75.917 85.353 76.537 85.786 77.084 86.332 79.778 89.025 79.778 93.388 77.084 96.087 74.39 98.78 70.023 98.78 67.332 96.087 64.638 93.389 64.638 89.025 67.332 86.332 67.998 85.667 68.768 85.164 69.59 84.827 L69.59 60.118 C68.768 59.781 67.999 59.282 67.332 58.612 65.291 56.573 64.8 53.579 65.847 51.072 L55.642 40.868 28.699 67.81 C26.435 70.075 26.435 73.745 28.699 76.009 L67.994 115.302 C70.257 117.565 73.926 117.565 76.192 115.302 L115.303 76.192 C117.566 73.927 117.566 70.255 115.302 67.992 Z" fill="#f34f29" fill-opacity="1" stroke="none"/>
</svg>
