<?xml version="1.0" encoding="UTF-8"?>
<svg width="144px" height="144px" viewBox="0 0 144 144" xmlns="http://www.w3.org/2000/svg" xmlns:xlink="http://www.w3.org/1999/xlink" version="1.1">
 <!-- Generated by Pixelmator Pro 2.0.2 -->
 <defs>
  <path id="Rounded-Rectangle" d="M32 0 C14.327 0 0 14.327 0 32 L0 112 C0 129.673 14.327 144 32 144 L112 144 C129.673 144 144 129.673 144 112 L144 32 C144 14.327 129.673 0 112 0 Z"/>
 </defs>
 <use id="Rounded-Rectangle-1" xlink:href="#Rounded-Rectangle" fill="#ffffff" fill-opacity="1" stroke="none"/>
 <defs>
  <path id="stroke-path" d="M115.859 142.25 L121.75 140.891 128.453 137.672 134.063 133.047 138.453 127.172 141.328 120.391 142.484 112.719 142.484 31.25 141.703 25.141 140.375 20.797 137.688 15.563 135.047 12.031 130.875 8.047 125.875 4.844 121.734 3.109 117.422 1.984 111.875 1.5 32.031 1.5 25.125 2.297 19.422 4.203 14.375 7.109 9.906 10.984 6.25 15.656 3.594 20.828 1.984 26.563 1.5 32.125 1.5 112.719 2.672 120.406 4.188 124.563 6.297 128.438 8.938 131.984 13.109 135.969 18.109 139.172 22.25 140.906 26.563 142.031 32.125 142.5 Z"/>
 </defs>
 <use id="Rounded-Rectangle-2" stroke="#000000" stroke-opacity="1" stroke-linecap="round" fill="none" stroke-width="3" xlink:href="#stroke-path"/>
 <g id="New-Group">
  <path id="Path" d="M41.706 118.326 L34.743 40.225 111.257 40.225 104.287 118.314 72.953 127 Z" fill="#e44d26" fill-opacity="1" stroke="none"/>
  <path id="Path-1" d="M73 120.36 L98.318 113.341 104.276 46.612 73 46.612 Z" fill="#f16529" fill-opacity="1" stroke="none"/>
  <path id="Path-2" d="M73 75.578 L60.324 75.578 59.45 65.768 73 65.768 73 56.19 48.981 56.19 49.21 58.76 51.565 85.156 73 85.156 Z M73 100.454 L72.958 100.465 62.291 97.584 61.608 89.946 51.992 89.946 53.334 104.985 72.956 110.433 73 110.42 Z" fill="#ebebeb" fill-opacity="1" stroke="none"/>
  <path id="Path-3" d="M41.862 19 L46.729 19 46.729 23.81 51.183 23.81 51.183 19 56.051 19 56.051 33.564 51.183 33.564 51.183 28.687 46.73 28.687 46.73 33.564 41.862 33.564 41.862 19 Z M62.452 23.83 L58.166 23.83 58.166 19 71.607 19 71.607 23.83 67.32 23.83 67.32 33.564 62.452 33.564 Z M73.74 19 L78.815 19 81.938 24.118 85.057 19 90.135 19 90.135 33.564 85.286 33.564 85.286 26.345 81.938 31.523 81.853 31.523 78.503 26.345 78.503 33.564 73.739 33.564 73.739 19 Z M92.558 19 L97.427 19 97.427 28.75 104.273 28.75 104.273 33.565 92.558 33.565 92.558 19 Z" fill="#000000" fill-opacity="1" stroke="none"/>
  <path id="Path-4" d="M72.967 75.578 L72.967 85.156 84.762 85.156 83.651 97.579 72.967 100.463 72.967 110.428 92.604 104.985 92.748 103.367 94.999 78.15 95.233 75.578 92.651 75.578 Z M72.967 56.19 L72.967 65.768 96.105 65.768 96.296 63.615 96.733 58.76 96.962 56.19 Z" fill="#ffffff" fill-opacity="1" stroke="none"/>
 </g>
</svg>
