<?xml version="1.0" encoding="UTF-8"?>
<svg width="144px" height="144px" viewBox="0 0 144 144" xmlns="http://www.w3.org/2000/svg" xmlns:xlink="http://www.w3.org/1999/xlink" version="1.1">
 <!-- Generated by Pixelmator Pro 2.0.2 -->
 <path id="Rounded-Rectangle" d="M16 0 C7.164 0 0 7.164 0 16 L0 128 C0 136.836 7.164 144 16 144 L128 144 C136.836 144 144 136.836 144 128 L144 16 C144 7.164 136.836 0 128 0 Z" fill="#ffffff" fill-opacity="1" stroke="none"/>
 <g id="New-Group">
  <path id="Path" d="M41.706 118.326 L34.743 40.225 111.257 40.225 104.287 118.314 72.953 127 Z" fill="#e44d26" fill-opacity="1" stroke="none"/>
  <path id="Path-1" d="M73 120.36 L98.318 113.341 104.276 46.612 73 46.612 Z" fill="#f16529" fill-opacity="1" stroke="none"/>
  <path id="Path-2" d="M73 75.578 L60.324 75.578 59.45 65.768 73 65.768 73 56.19 48.981 56.19 49.21 58.76 51.565 85.156 73 85.156 Z M73 100.454 L72.958 100.465 62.291 97.584 61.608 89.946 51.992 89.946 53.334 104.985 72.956 110.433 73 110.42 Z" fill="#ebebeb" fill-opacity="1" stroke="none"/>
  <path id="Path-3" d="M41.862 19 L46.729 19 46.729 23.81 51.183 23.81 51.183 19 56.051 19 56.051 33.564 51.183 33.564 51.183 28.687 46.73 28.687 46.73 33.564 41.862 33.564 41.862 19 Z M62.452 23.83 L58.166 23.83 58.166 19 71.607 19 71.607 23.83 67.32 23.83 67.32 33.564 62.452 33.564 Z M73.74 19 L78.815 19 81.938 24.118 85.057 19 90.135 19 90.135 33.564 85.286 33.564 85.286 26.345 81.938 31.523 81.853 31.523 78.503 26.345 78.503 33.564 73.739 33.564 73.739 19 Z M92.558 19 L97.427 19 97.427 28.75 104.273 28.75 104.273 33.565 92.558 33.565 92.558 19 Z" fill="#000000" fill-opacity="1" stroke="none"/>
  <path id="Path-4" d="M72.967 75.578 L72.967 85.156 84.762 85.156 83.651 97.579 72.967 100.463 72.967 110.428 92.604 104.985 92.748 103.367 94.999 78.15 95.233 75.578 92.651 75.578 Z M72.967 56.19 L72.967 65.768 96.105 65.768 96.296 63.615 96.733 58.76 96.962 56.19 Z" fill="#ffffff" fill-opacity="1" stroke="none"/>
 </g>
</svg>
