<?xml version="1.0" encoding="UTF-8"?>
<svg width="144px" height="144px" viewBox="0 0 144 144" xmlns="http://www.w3.org/2000/svg" xmlns:xlink="http://www.w3.org/1999/xlink" version="1.1">
 <!-- Generated by Pixelmator Pro 2.0.2 -->
 <defs>
  <path id="Rounded-Rectangle" d="M32 0 C14.327 0 0 14.327 0 32 L0 112 C0 129.673 14.327 144 32 144 L112 144 C129.673 144 144 129.673 144 112 L144 32 C144 14.327 129.673 0 112 0 Z"/>
 </defs>
 <use id="Rounded-Rectangle-1" xlink:href="#Rounded-Rectangle" fill="#ffffff" fill-opacity="1" stroke="none"/>
 <defs>
  <path id="stroke-path" d="M115.859 142.25 L121.75 140.891 128.453 137.672 134.063 133.047 138.453 127.172 141.328 120.391 142.484 112.719 142.484 31.25 141.703 25.141 140.375 20.797 137.688 15.563 135.047 12.031 130.875 8.047 125.875 4.844 121.734 3.109 117.422 1.984 111.875 1.5 32.031 1.5 25.125 2.297 19.422 4.203 14.375 7.109 9.906 10.984 6.25 15.656 3.594 20.828 1.984 26.563 1.5 32.125 1.5 112.719 2.672 120.406 4.188 124.563 6.297 128.438 8.938 131.984 13.109 135.969 18.109 139.172 22.25 140.906 26.563 142.031 32.125 142.5 Z"/>
 </defs>
 <use id="Rounded-Rectangle-2" stroke="#000000" stroke-opacity="1" stroke-linecap="round" fill="none" stroke-width="3" xlink:href="#stroke-path"/>
 <g id="New-Group">
  <path id="Path" d="M62.892 75.045 C62.892 75.045 60.273 76.569 64.759 77.084 70.194 77.705 72.972 77.615 78.961 76.483 78.961 76.483 80.539 77.47 82.737 78.325 69.309 84.078 52.345 77.992 62.892 75.045 Z M61.25 67.535 C61.25 67.535 58.311 69.712 62.801 70.176 68.608 70.775 73.192 70.824 81.129 69.296 81.129 69.296 82.225 70.41 83.95 71.017 67.717 75.766 49.636 71.391 61.25 67.535 Z" fill="#0074bd" fill-opacity="1" stroke="none"/>
  <path id="Path-1" d="M75.083 54.796 C78.394 58.607 74.215 62.034 74.215 62.034 74.215 62.034 82.616 57.697 78.758 52.265 75.154 47.201 72.392 44.686 87.349 36.011 87.35 36.011 63.869 41.873 75.083 54.796 Z" fill="#ea2d2e" fill-opacity="1" stroke="none"/>
  <path id="Path-2" d="M92.843 80.599 C92.843 80.599 94.783 82.198 90.707 83.435 82.958 85.782 58.448 86.49 51.641 83.528 49.195 82.463 53.784 80.986 55.227 80.676 56.732 80.35 57.592 80.409 57.592 80.409 54.87 78.493 40 84.173 50.039 85.803 77.417 90.24 99.944 83.804 92.843 80.599 Z M64.153 59.754 C64.153 59.754 51.687 62.716 59.739 63.793 63.14 64.247 69.915 64.143 76.23 63.613 81.39 63.18 86.568 62.254 86.568 62.254 86.568 62.254 84.751 63.034 83.434 63.932 70.772 67.262 46.318 65.711 53.359 62.307 59.311 59.426 64.153 59.754 64.153 59.754 Z M86.516 72.253 C99.386 65.567 93.435 59.142 89.282 60.007 88.266 60.219 87.81 60.403 87.81 60.403 87.81 60.403 88.189 59.809 88.909 59.555 97.126 56.668 103.444 68.074 86.26 72.592 86.26 72.592 86.457 72.413 86.516 72.253 Z" fill="#0074bd" fill-opacity="1" stroke="none"/>
  <path id="Path-3" d="M78.759 22 C78.759 22 85.886 29.13 71.998 40.091 60.862 48.887 69.459 53.901 71.994 59.631 65.493 53.766 60.725 48.602 63.923 43.797 68.62 36.745 81.633 33.324 78.759 22 Z" fill="#ea2d2e" fill-opacity="1" stroke="none"/>
  <path id="Path-4" d="M65.419 90.376 C77.769 91.166 96.74 89.937 97.189 84.093 97.189 84.093 96.326 86.308 86.981 88.066 76.438 90.05 63.433 89.82 55.721 88.547 55.721 88.547 57.301 89.855 65.419 90.376 Z" fill="#0074bd" fill-opacity="1" stroke="none"/>
  <path id="Path-5" d="M96.619 100.859 L96.243 100.859 96.243 100.648 97.256 100.648 97.256 100.859 96.881 100.859 96.881 101.909 96.618 101.909 Z M98.641 100.911 L98.636 100.911 98.263 101.909 98.091 101.909 97.72 100.911 97.716 100.911 97.716 101.909 97.467 101.909 97.467 100.648 97.831 100.648 98.175 101.541 98.52 100.648 98.882 100.648 98.882 101.909 98.641 101.909 Z M63.394 112.708 C62.23 113.718 60.998 114.286 59.892 114.286 58.318 114.286 57.463 113.34 57.463 111.825 57.463 110.186 58.377 108.986 62.04 108.986 L63.394 108.986 63.394 112.708 Z M66.61 116.336 L66.61 105.108 C66.61 102.237 64.972 100.343 61.029 100.343 58.727 100.343 56.709 100.913 55.068 101.637 L55.54 103.626 C56.832 103.151 58.503 102.711 60.143 102.711 62.417 102.711 63.394 103.626 63.394 105.519 L63.394 106.938 62.258 106.938 C56.738 106.938 54.247 109.08 54.247 112.3 54.247 115.075 55.888 116.652 58.979 116.652 60.965 116.652 62.449 115.832 63.835 114.632 L64.087 116.336 66.61 116.336 Z M77.339 116.336 L73.33 116.336 68.503 100.631 72.005 100.631 75.001 110.282 75.667 113.181 C77.18 108.987 78.252 104.729 78.788 100.632 L82.194 100.632 C81.283 105.801 79.639 111.478 77.339 116.336 Z M92.724 112.708 C91.555 113.718 90.323 114.286 89.22 114.286 87.644 114.286 86.791 113.34 86.791 111.825 86.791 110.186 87.707 108.986 91.366 108.986 L92.723 108.986 92.723 112.708 Z M95.94 116.336 L95.94 105.108 C95.94 102.237 94.298 100.343 90.358 100.343 88.053 100.343 86.036 100.913 84.396 101.637 L84.869 103.626 C86.161 103.151 87.834 102.711 89.474 102.711 91.744 102.711 92.724 103.626 92.724 105.519 L92.724 106.938 91.588 106.938 C86.066 106.938 83.576 109.08 83.576 112.3 83.576 115.075 85.216 116.652 88.306 116.652 90.292 116.652 91.774 115.832 93.164 114.632 L93.417 116.336 95.94 116.336 Z M50.721 119.004 C49.806 120.344 48.324 121.404 46.704 122.001 L45.117 120.131 C46.351 119.497 47.408 118.476 47.9 117.523 48.324 116.675 48.501 115.585 48.501 112.976 L48.501 95.044 51.918 95.044 51.918 112.73 C51.918 116.219 51.64 117.63 50.721 119.004 Z" fill="#ea2d2e" fill-opacity="1" stroke="none"/>
 </g>
</svg>
