<?xml version="1.0" encoding="UTF-8"?>
<svg width="144px" height="144px" viewBox="0 0 144 144" xmlns="http://www.w3.org/2000/svg" xmlns:xlink="http://www.w3.org/1999/xlink" version="1.1">
 <!-- Generated by Pixelmator Pro 2.0.2 -->
 <path id="Rounded-Rectangle" d="M16 0 C7.164 0 0 7.164 0 16 L0 128 C0 136.836 7.164 144 16 144 L128 144 C136.836 144 144 136.836 144 128 L144 16 C144 7.164 136.836 0 128 0 Z" fill="#ffffff" fill-opacity="1" stroke="none"/>
 <g id="New-Group">
  <path id="Path" d="M28 27 L118 27 118 117.001 28 117.001 Z" fill="#f0db4f" fill-opacity="1" stroke="none"/>
  <path id="Path-1" d="M110.635 95.535 C109.975 91.43 107.298 87.981 99.367 84.765 96.612 83.499 93.541 82.592 92.626 80.505 92.301 79.29 92.258 78.605 92.463 77.87 93.053 75.483 95.903 74.739 98.161 75.423 99.615 75.91 100.992 77.031 101.822 78.819 105.706 76.304 105.698 76.321 108.41 74.593 107.417 73.053 106.887 72.343 106.237 71.685 103.902 69.075 100.719 67.732 95.629 67.835 L92.977 68.178 C90.437 68.82 88.015 70.153 86.595 71.941 82.335 76.775 83.55 85.236 88.734 88.718 93.841 92.551 101.344 93.423 102.303 97.008 103.235 101.396 99.078 102.817 94.945 102.312 91.9 101.679 90.206 100.131 88.375 97.316 85.004 99.267 85.004 99.267 81.539 101.26 82.361 103.056 83.224 103.869 84.602 105.426 91.121 112.039 107.435 111.714 110.361 101.705 110.48 101.361 111.268 99.069 110.635 95.535 Z M76.927 68.364 L68.509 68.364 68.474 90.128 C68.474 94.757 68.714 99 67.961 100.301 66.729 102.859 63.538 102.542 62.084 102.046 60.603 101.318 59.851 100.283 58.978 98.821 58.739 98.401 58.559 98.076 58.499 98.051 L51.655 102.243 C52.793 104.578 54.469 106.606 56.617 107.923 59.825 109.848 64.136 110.438 68.645 109.403 71.58 108.548 74.112 106.778 75.438 104.082 77.355 100.549 76.943 96.272 76.926 91.541 76.969 83.823 76.927 76.107 76.927 68.364 Z" fill="#323330" fill-opacity="1" stroke="none"/>
 </g>
</svg>
