<?xml version="1.0" encoding="UTF-8"?>
<svg width="144px" height="144px" viewBox="0 0 144 144" xmlns="http://www.w3.org/2000/svg" xmlns:xlink="http://www.w3.org/1999/xlink" version="1.1">
 <!-- Generated by Pixelmator Pro 2.0.2 -->
 <path id="Rounded-Rectangle" d="M16 0 C7.164 0 0 7.164 0 16 L0 128 C0 136.836 7.164 144 16 144 L128 144 C136.836 144 144 136.836 144 128 L144 16 C144 7.164 136.836 0 128 0 Z" fill="#ffffff" fill-opacity="1" stroke="none"/>
 <path id="Path" d="M109.751 96.103 C104.857 95.97 101.121 96.425 97.926 97.772 97.018 98.155 95.57 98.166 95.421 99.303 95.92 99.826 95.998 100.607 96.394 101.25 97.157 102.484 98.445 104.139 99.594 105.006 100.851 105.954 102.145 106.968 103.491 107.788 105.885 109.248 108.558 110.082 110.863 111.544 112.222 112.407 113.572 113.493 114.897 114.465 115.553 114.946 115.993 115.694 116.845 115.996 L116.845 115.858 C116.397 115.287 116.282 114.504 115.871 113.909 L114.062 112.1 C112.294 109.753 110.049 107.691 107.662 105.979 105.759 104.613 101.501 102.768 100.707 100.554 L100.568 100.415 C101.917 100.263 103.496 99.775 104.742 99.441 106.834 98.88 108.703 99.025 110.863 98.467 L113.784 97.632 113.784 97.076 C112.692 95.956 111.914 94.473 110.724 93.459 107.608 90.807 104.209 88.157 100.708 85.947 98.766 84.722 96.367 83.925 94.308 82.887 93.616 82.537 92.4 82.355 91.943 81.773 90.861 80.395 90.273 78.649 89.439 77.044 87.693 73.681 85.979 70.008 84.431 66.47 83.376 64.057 82.687 61.678 81.371 59.514 75.054 49.128 68.255 42.86 57.722 36.698 55.48 35.388 52.781 34.871 49.93 34.194 48.4 34.102 46.869 34.008 45.339 33.915 44.405 33.526 43.434 32.383 42.557 31.828 39.068 29.623 30.117 24.829 27.533 31.133 25.901 35.112 29.972 38.993 31.428 41.01 32.45 42.424 33.758 44.01 34.489 45.601 34.969 46.647 35.052 47.695 35.463 48.801 36.473 51.526 37.354 54.491 38.662 57.008 39.323 58.283 40.052 59.625 40.888 60.764 41.4 61.464 42.279 61.772 42.418 62.851 41.559 64.053 41.51 65.92 41.027 67.443 38.853 74.298 39.673 82.82 42.836 87.893 43.806 89.452 46.092 92.792 49.235 91.51 51.984 90.391 51.37 86.92 52.157 83.858 52.334 83.165 52.225 82.654 52.574 82.189 L52.574 82.328 55.079 87.336 C56.932 90.322 60.221 93.441 63.008 95.546 64.454 96.637 65.592 98.524 67.46 99.163 L67.46 99.023 67.321 99.023 C66.959 98.459 66.392 98.225 65.93 97.772 64.841 96.704 63.631 95.377 62.731 94.155 60.196 90.713 57.956 86.946 55.914 83.026 54.939 81.153 54.091 79.088 53.27 77.182 52.953 76.448 52.958 75.336 52.297 74.956 51.397 76.352 50.071 77.482 49.376 79.13 48.263 81.765 48.119 84.979 47.706 88.312 47.463 88.399 47.571 88.339 47.428 88.45 45.49 87.983 44.81 85.989 44.089 84.277 42.268 79.949 41.929 72.982 43.532 68 43.947 66.711 45.821 62.652 45.062 61.461 44.7 60.273 43.505 59.586 42.837 58.678 42.009 57.556 41.183 56.079 40.609 54.782 39.119 51.409 38.423 47.621 36.854 44.21 36.103 42.58 34.835 40.929 33.793 39.48 32.64 37.874 31.349 36.691 30.454 34.75 30.136 34.06 29.705 32.954 30.176 32.245 30.325 31.767 30.538 31.567 31.011 31.411 31.818 30.788 34.065 31.618 34.905 31.966 37.136 32.893 38.998 33.776 40.888 35.028 41.794 35.63 42.713 36.792 43.809 37.115 L45.061 37.115 C47.02 37.565 49.214 37.254 51.044 37.81 54.278 38.792 57.176 40.322 59.808 41.984 67.826 47.047 74.383 54.254 78.867 62.852 79.589 64.236 79.901 65.557 80.536 67.026 81.818 69.987 83.433 73.033 84.709 75.929 85.982 78.818 87.223 81.734 89.022 84.138 89.968 85.401 93.622 86.079 95.283 86.782 96.446 87.273 98.354 87.786 99.457 88.45 101.562 89.721 103.603 91.233 105.578 92.625 106.564 93.32 109.6 94.846 109.751 96.103 Z M47.565 43.099 C46.545 43.08 45.823 43.211 45.061 43.377 L45.061 43.516 45.2 43.516 C45.687 44.515 46.546 45.16 47.147 46.021 47.61 46.995 48.074 47.968 48.538 48.942 L48.677 48.804 C49.539 48.196 49.933 47.226 49.928 45.743 49.583 45.38 49.532 44.925 49.233 44.491 48.837 43.913 48.067 43.584 47.565 43.099 Z" fill="#00618a" fill-opacity="1" stroke="none"/>
</svg>
