<?xml version="1.0" encoding="UTF-8"?>
<svg width="144px" height="144px" viewBox="0 0 144 144" xmlns="http://www.w3.org/2000/svg" xmlns:xlink="http://www.w3.org/1999/xlink" version="1.1">
 <!-- Generated by Pixelmator Pro 2.0.2 -->
 <path id="Rounded-Rectangle" d="M16 0 C7.164 0 0 7.164 0 16 L0 128 C0 136.836 7.164 144 16 144 L128 144 C136.836 144 144 136.836 144 128 L144 16 C144 7.164 136.836 0 128 0 Z" fill="#ffffff" fill-opacity="1" stroke="none"/>
 <g id="New-Group">
  <path id="Path" d="M119.572 87.833 C119.298 87.833 119.026 87.761 118.786 87.621 L116.281 86.139 C115.906 85.93 116.089 85.855 116.213 85.813 116.712 85.639 116.813 85.598 117.345 85.298 117.401 85.266 117.474 85.278 117.531 85.312 L119.455 86.455 C119.525 86.493 119.624 86.493 119.688 86.455 L127.191 82.124 C127.261 82.085 127.306 82.004 127.306 81.921 L127.306 73.262 C127.306 73.177 127.261 73.098 127.19 73.055 L119.69 68.728 C119.62 68.689 119.528 68.689 119.458 68.728 L111.959 73.056 C111.887 73.098 111.841 73.18 111.841 73.262 L111.841 81.921 C111.841 82.004 111.887 82.083 111.959 82.121 L114.014 83.31 C115.129 83.866 115.813 83.21 115.813 82.551 L115.813 74 C115.813 73.88 115.91 73.785 116.03 73.785 L116.982 73.785 C117.1 73.785 117.199 73.88 117.199 74 L117.199 82.551 C117.199 84.038 116.389 84.892 114.977 84.892 114.543 84.892 114.202 84.892 113.249 84.423 L111.282 83.291 C110.795 83.009 110.496 82.483 110.496 81.922 L110.496 73.263 C110.496 72.7 110.795 72.176 111.282 71.896 L118.785 67.56 C119.259 67.292 119.89 67.292 120.361 67.56 L127.864 71.896 C128.349 72.177 128.651 72.701 128.651 73.263 L128.651 81.922 C128.651 82.484 128.349 83.007 127.864 83.291 L120.361 87.622 C120.122 87.761 119.851 87.833 119.572 87.833 M121.891 81.867 C118.606 81.867 117.919 80.359 117.919 79.095 117.919 78.976 118.016 78.879 118.136 78.879 L119.106 78.879 C119.215 78.879 119.305 78.957 119.322 79.062 119.467 80.05 119.905 80.548 121.891 80.548 123.471 80.548 124.144 80.191 124.144 79.352 124.144 78.868 123.953 78.509 121.497 78.268 119.444 78.065 118.174 77.612 118.174 75.968 118.174 74.455 119.45 73.551 121.589 73.551 123.993 73.551 125.182 74.386 125.332 76.176 125.338 76.237 125.316 76.296 125.275 76.343 125.234 76.385 125.177 76.412 125.117 76.412 L124.142 76.412 C124.041 76.412 123.952 76.341 123.931 76.243 123.697 75.203 123.13 74.871 121.588 74.871 119.863 74.871 119.662 75.473 119.662 75.922 119.662 76.468 119.898 76.626 122.229 76.935 124.534 77.24 125.63 77.671 125.63 79.292 125.631 80.93 124.268 81.867 121.891 81.867" fill="#83cd29" fill-opacity="1" stroke="none"/>
  <path id="Path-1" d="M104.123 76.188 C104.419 76.015 104.602 75.699 104.602 75.356 L104.602 73.131 C104.602 72.788 104.42 72.473 104.123 72.3 L96.217 67.709 C95.919 67.536 95.552 67.535 95.253 67.707 L87.298 72.301 C87.001 72.473 86.818 72.789 86.818 73.132 L86.818 82.317 C86.818 82.662 87.003 82.982 87.303 83.153 L95.209 87.657 C95.5 87.824 95.857 87.825 96.151 87.663 L100.933 85.005 C101.085 84.919 101.18 84.761 101.18 84.589 101.181 84.415 101.089 84.254 100.938 84.168 L92.934 79.574 C92.783 79.488 92.692 79.329 92.692 79.158 L92.692 76.278 C92.692 76.106 92.783 75.949 92.932 75.863 L95.425 74.427 C95.572 74.341 95.755 74.341 95.904 74.427 L98.397 75.863 C98.546 75.95 98.638 76.107 98.638 76.278 L98.638 78.543 C98.638 78.716 98.729 78.875 98.878 78.96 99.027 79.046 99.21 79.046 99.36 78.959 Z" fill="#404137" fill-opacity="1" stroke="none"/>
  <path id="Path-2" d="M95.617 75.757 C95.675 75.725 95.745 75.725 95.802 75.757 L97.328 76.639 C97.385 76.672 97.42 76.733 97.42 76.798 L97.42 78.561 C97.42 78.628 97.385 78.688 97.328 78.721 L95.802 79.602 C95.745 79.635 95.674 79.635 95.617 79.602 L94.092 78.721 C94.034 78.688 93.999 78.628 93.999 78.561 L93.999 76.798 C93.999 76.733 94.034 76.672 94.092 76.639 Z" fill="#83cd29" fill-opacity="1" stroke="none"/>
  <path id="Path-3" d="M74.914 79.424 C74.914 79.51 74.869 79.589 74.794 79.632 L72.062 81.207 C71.988 81.251 71.896 81.251 71.822 81.207 L69.09 79.632 C69.016 79.589 68.97 79.51 68.97 79.424 L68.97 76.269 C68.97 76.184 69.017 76.104 69.09 76.06 L71.822 74.483 C71.897 74.439 71.989 74.439 72.063 74.483 L74.796 76.06 C74.87 76.104 74.915 76.184 74.915 76.269 L74.915 79.424 Z M75.653 56.06 C75.504 55.978 75.323 55.98 75.175 56.066 75.029 56.153 74.938 56.31 74.938 56.48 L74.938 68.689 C74.938 68.808 74.874 68.919 74.771 68.98 74.667 69.039 74.538 69.039 74.434 68.98 L72.441 67.831 C72.145 67.66 71.779 67.66 71.482 67.831 L63.524 72.424 C63.227 72.596 63.043 72.913 63.043 73.256 L63.043 82.444 C63.043 82.787 63.227 83.104 63.523 83.277 L71.481 87.872 C71.778 88.044 72.145 88.044 72.442 87.872 L80.402 83.277 C80.699 83.104 80.882 82.787 80.882 82.444 L80.882 59.542 C80.882 59.194 80.693 58.873 80.389 58.702 Z" fill="#404137" fill-opacity="1" stroke="none"/>
  <path id="Path-4" d="M47.647 67.658 C47.944 67.486 48.311 67.486 48.607 67.658 L56.565 72.25 C56.862 72.422 57.045 72.739 57.045 73.082 L57.045 82.273 C57.045 82.616 56.862 82.933 56.565 83.105 L48.608 87.701 C48.312 87.872 47.945 87.872 47.647 87.701 L39.692 83.105 C39.395 82.933 39.212 82.616 39.212 82.273 L39.212 73.081 C39.212 72.739 39.395 72.422 39.692 72.25 Z" fill="#83cd29" fill-opacity="1" stroke="none"/>
  <path id="Path-5" d="M33.176 73.006 C33.176 72.66 32.995 72.342 32.696 72.171 L24.741 67.593 C24.605 67.514 24.455 67.473 24.303 67.467 L24.22 67.467 C24.069 67.473 23.918 67.514 23.782 67.593 L15.826 72.171 C15.53 72.342 15.345 72.66 15.345 73.006 L15.362 85.333 C15.362 85.505 15.452 85.664 15.602 85.748 15.75 85.836 15.932 85.836 16.079 85.748 L20.806 83.04 C21.105 82.863 21.287 82.55 21.287 82.206 L21.287 76.448 C21.287 76.104 21.469 75.787 21.766 75.615 L23.78 74.456 C23.929 74.368 24.094 74.326 24.26 74.326 24.425 74.326 24.593 74.368 24.739 74.456 L26.751 75.615 C27.049 75.787 27.232 76.104 27.232 76.448 L27.232 82.206 C27.232 82.55 27.417 82.864 27.713 83.04 L32.44 85.748 C32.588 85.836 32.774 85.836 32.92 85.748 33.067 85.663 33.158 85.504 33.158 85.333 Z" fill="#404137" fill-opacity="1" stroke="none"/>
 </g>
</svg>
