<?xml version="1.0" encoding="UTF-8"?>
<svg width="144px" height="144px" viewBox="0 0 144 144" xmlns="http://www.w3.org/2000/svg" xmlns:xlink="http://www.w3.org/1999/xlink" version="1.1">
 <!-- Generated by Pixelmator Pro 2.0.2 -->
 <path id="Rounded-Rectangle" d="M16 0 C7.164 0 0 7.164 0 16 L0 128 C0 136.836 7.164 144 16 144 L128 144 C136.836 144 144 136.836 144 128 L144 16 C144 7.164 136.836 0 128 0 Z" fill="#ffffff" fill-opacity="1" stroke="none"/>
 <g id="New-Group">
  <defs>
   <linearGradient id="linear-gradient" gradientUnits="userSpaceOnUse" x1="77.008" y1="1021.874" x2="157.427" y2="952.684">
    <stop offset="0" stop-color="#5a9fd4" stop-opacity="1"/>
    <stop offset="1" stop-color="#306998" stop-opacity="1"/>
   </linearGradient>
  </defs>
  <path id="Path" d="M71.512 32.333 C68.131 32.349 64.903 32.636 62.061 33.139 53.692 34.618 52.173 37.713 52.173 43.421 L52.173 50.958 71.951 50.958 71.951 53.471 44.75 53.471 C39.003 53.471 33.97 56.925 32.395 63.499 30.578 71.032 30.498 75.734 32.395 83.599 33.801 89.455 37.158 93.626 42.906 93.626 L49.707 93.626 49.707 84.59 C49.707 78.062 55.354 72.304 62.062 72.304 L81.817 72.304 C87.316 72.304 91.706 67.775 91.706 62.254 L91.706 43.422 C91.706 38.061 87.183 34.035 81.817 33.14 78.418 32.575 74.893 32.317 71.512 32.333 Z M60.817 38.395 C62.859 38.395 64.528 40.09 64.528 42.176 64.528 44.253 62.86 45.932 60.817 45.932 58.766 45.932 57.106 44.253 57.106 42.176 57.105 40.09 58.766 38.395 60.817 38.395 Z" fill-opacity="1" fill="url(#linear-gradient)" stroke="none"/>
  <defs>
   <linearGradient id="linear-gradient-1" gradientUnits="userSpaceOnUse" x1="188.515" y1="910.813" x2="159.798" y2="951.441">
    <stop offset="0" stop-color="#ffd43b" stop-opacity="1"/>
    <stop offset="1" stop-color="#ffe873" stop-opacity="1"/>
   </linearGradient>
  </defs>
  <path id="Path-1" d="M94.172 53.471 L94.172 62.254 C94.172 69.062 88.399 74.792 81.816 74.792 L62.061 74.792 C56.65 74.792 52.173 79.424 52.173 84.843 L52.173 103.677 C52.173 109.036 56.833 112.19 62.061 113.727 68.322 115.566 74.325 115.899 81.816 113.727 86.795 112.284 91.705 109.383 91.705 103.677 L91.705 96.139 71.951 96.139 71.951 93.626 101.595 93.626 C107.342 93.626 109.485 89.617 111.485 83.599 113.549 77.403 113.46 71.445 111.485 63.498 110.064 57.776 107.351 53.47 101.595 53.47 L94.172 53.47 Z M83.06 101.164 C85.111 101.164 86.772 102.843 86.772 104.922 86.772 107.006 85.111 108.701 83.06 108.701 81.018 108.701 79.35 107.006 79.35 104.922 79.35 102.843 81.018 101.164 83.06 101.164 Z" fill-opacity="1" fill="url(#linear-gradient-1)" stroke="none"/>
  <defs>
   <radialGradient id="radial-gradient" gradientUnits="userSpaceOnUse" cx="1482.983" cy="386.714" r="21.419" fx="1482.983" fy="386.714">
    <stop offset="0" stop-color="#b8b8b8" stop-opacity="0.498"/>
    <stop offset="1" stop-color="#7f7f7f" stop-opacity="0"/>
   </radialGradient>
  </defs>
  <path id="Path-2" d="M98.678 126.529 C98.678 129.367 86.812 131.668 72.175 131.668 57.537 131.668 45.67 129.367 45.67 126.529 45.67 123.691 57.536 121.39 72.175 121.39 86.812 121.39 98.678 123.69 98.678 126.529 Z" fill-opacity="1" fill="url(#radial-gradient)" stroke="none"/>
 </g>
</svg>
