<?xml version="1.0" encoding="UTF-8"?>
<svg width="144px" height="144px" viewBox="0 0 144 144" xmlns="http://www.w3.org/2000/svg" xmlns:xlink="http://www.w3.org/1999/xlink" version="1.1">
 <!-- Generated by Pixelmator Pro 2.0.2 -->
 <path id="Rounded-Rectangle" d="M16 0 C7.164 0 0 7.164 0 16 L0 128 C0 136.836 7.164 144 16 144 L128 144 C136.836 144 144 136.836 144 128 L144 16 C144 7.164 136.836 0 128 0 Z" fill="#ffffff" fill-opacity="1" stroke="none"/>
 <g id="group">
  <path id="Path" d="M81.177 72 C81.177 77.068 77.068 81.177 72 81.177 66.932 81.177 62.823 77.068 62.823 72 62.823 66.932 66.932 62.823 72 62.823 77.068 62.823 81.177 66.932 81.177 72 Z" fill="#61dafb" fill-opacity="1" stroke="none"/>
  <path id="Path-1" d="M106.857 56.866 C105.086 56.222 103.234 55.578 101.302 55.014 101.785 53.082 102.188 51.15 102.51 49.299 104.2 38.673 102.349 31.186 97.197 28.288 95.667 27.403 93.977 27 92.045 27 86.41 27 79.245 31.186 72 38.19 64.755 31.186 57.59 27 51.955 27 50.023 27 48.333 27.403 46.803 28.288 41.651 31.267 39.8 38.753 41.49 49.299 41.812 51.15 42.215 53.082 42.698 55.014 40.766 55.578 38.914 56.141 37.143 56.866 27.081 60.73 21.606 66.043 21.606 72 21.606 77.957 27.161 83.27 37.143 87.134 38.914 87.778 40.766 88.422 42.698 88.986 42.215 90.918 41.812 92.85 41.49 94.701 39.8 105.327 41.651 112.814 46.803 115.712 48.333 116.597 50.023 117 51.955 117 57.671 117 64.835 112.814 72 105.81 79.245 112.814 86.41 117 92.045 117 93.977 117 95.667 116.597 97.197 115.712 102.349 112.733 104.2 105.247 102.51 94.701 102.188 92.85 101.785 90.918 101.302 88.986 103.234 88.422 105.086 87.859 106.857 87.134 116.92 83.27 122.394 77.957 122.394 72 122.394 66.043 116.92 60.73 106.857 56.866 Z M94.943 32.313 C98.243 34.245 99.37 40.202 98.002 48.655 97.76 50.345 97.358 52.116 96.875 53.968 92.689 53.002 88.261 52.358 83.592 51.955 80.855 48.091 78.038 44.63 75.22 41.49 81.177 35.614 87.215 31.589 92.125 31.589 93.172 31.589 94.138 31.83 94.943 32.313 Z M85.927 80.05 C84.478 82.626 82.787 85.202 81.016 87.778 78.038 88.02 75.059 88.1 72 88.1 68.86 88.1 65.882 88.02 62.984 87.778 61.213 85.202 59.603 82.626 58.154 80.05 56.624 77.394 55.175 74.657 53.887 72 55.175 69.343 56.624 66.606 58.154 63.95 59.603 61.374 61.293 58.798 63.064 56.222 66.043 55.98 69.021 55.9 72.081 55.9 75.22 55.9 78.199 55.98 81.097 56.222 82.868 58.798 84.478 61.374 85.927 63.95 87.456 66.606 88.905 69.343 90.193 72 88.825 74.657 87.456 77.313 85.927 80.05 Z M92.608 77.394 C93.816 80.211 94.782 82.948 95.667 85.685 92.93 86.329 90.032 86.812 86.973 87.215 87.939 85.685 88.986 84.075 89.871 82.385 90.837 80.694 91.723 79.004 92.608 77.394 Z M72 99.209 C70.068 97.116 68.216 94.862 66.445 92.528 68.297 92.608 70.148 92.689 72 92.689 73.852 92.689 75.703 92.608 77.555 92.528 75.784 94.862 73.932 97.116 72 99.209 Z M57.027 87.134 C53.968 86.732 51.07 86.249 48.333 85.605 49.218 82.948 50.184 80.131 51.392 77.313 52.277 78.923 53.163 80.614 54.129 82.224 55.095 83.995 56.061 85.524 57.027 87.134 Z M51.392 66.606 C50.184 63.789 49.218 61.052 48.333 58.315 51.07 57.671 53.968 57.188 57.027 56.785 56.061 58.315 55.014 59.925 54.129 61.615 53.163 63.306 52.277 64.996 51.392 66.606 Z M72 44.791 C73.932 46.884 75.784 49.138 77.555 51.472 75.703 51.392 73.852 51.311 72 51.311 70.148 51.311 68.297 51.392 66.445 51.472 68.216 49.138 70.068 46.884 72 44.791 Z M89.871 61.696 L86.973 56.866 C90.032 57.268 92.93 57.751 95.667 58.395 94.782 61.052 93.816 63.869 92.608 66.687 91.723 64.996 90.837 63.306 89.871 61.696 Z M45.998 48.655 C44.63 40.202 45.757 34.245 49.057 32.313 49.862 31.83 50.828 31.589 51.875 31.589 56.705 31.589 62.742 35.533 68.78 41.49 65.962 44.549 63.145 48.091 60.408 51.955 55.739 52.358 51.311 53.082 47.125 53.968 46.642 52.116 46.32 50.345 45.998 48.655 Z M26.114 72 C26.114 68.216 30.703 64.191 38.753 61.213 40.363 60.569 42.134 60.005 43.905 59.522 45.193 63.547 46.803 67.814 48.735 72.08 46.803 76.347 45.113 80.533 43.905 84.558 32.796 81.338 26.114 76.508 26.114 72 Z M49.057 111.687 C45.757 109.755 44.63 103.798 45.998 95.345 46.24 93.655 46.642 91.884 47.125 90.032 51.311 90.998 55.739 91.642 60.408 92.045 63.145 95.909 65.962 99.37 68.78 102.51 62.823 108.386 56.785 112.411 51.875 112.411 50.828 112.411 49.862 112.17 49.057 111.687 Z M98.002 95.345 C99.37 103.798 98.243 109.755 94.943 111.687 94.138 112.17 93.172 112.411 92.125 112.411 87.295 112.411 81.258 108.467 75.22 102.51 78.038 99.451 80.855 95.909 83.592 92.045 88.261 91.642 92.689 90.918 96.875 90.032 97.358 91.884 97.68 93.655 98.002 95.345 Z M105.247 82.787 C103.637 83.431 101.866 83.995 100.095 84.478 98.807 80.453 97.197 76.186 95.265 71.919 97.197 67.653 98.887 63.467 100.095 59.442 111.204 62.662 117.886 67.492 117.886 72 117.886 75.784 113.216 79.809 105.247 82.787 Z" fill="#61dafb" fill-opacity="1" stroke="none"/>
 </g>
</svg>
